<?xml version="1.0" encoding="UTF-8"?>
<svg version="1.1" viewBox="0 0 1600 536" width="549" height="184" xmlns="http://www.w3.org/2000/svg">
<path transform="translate(0)" d="m0 0h1600v536h-1600z" fill="#111541"/>
<path transform="translate(971,120)" d="m0 0 12 1 21 4 16 6 17 9 16 7 4 2 9 2 19 10 13 5 28 8 15 2h13l17-3 18-6 16-4 23-4 16-1h25l22 2 20 4 18 1 10-3 17-9 4-3 24-12 13-4 14-3 12 1 11 1 12 4 10 5 9 6 7 4v2l3 1v2l4 2 5 7v3h2l4 7 6 12-1 2-5-2 2 9 1 5 2 1v11l1 10 1 12-2 19-1 8-3 16-4 14-4 18-4 9-1 6h-3l-1-6 1-5 1-7h-2v-7l2-6v-6l-6 2-2 2-6 21-4 9-5 10-4 7h-2l-2 4-3 2h-3l-2 10-2 1h-31l-3-1v-5h-3v2l-9-1-10-6-6-2-16-1-8 2-16 8-5 3h-3v2l-9 6h-3v2l-7 4-1 4-1 5-4-2 1-5-10 4-17 4-12 2h-28l-13-2-17-3-10-4-6-1-3-2v-2h-5l-1-3h-5l-8-4-14-3-11-1-15 3-12 4h-3l-1 3-6 1-1 2-14 5-8 3-3 2-6-1-10 4-10 1-6 1h-36l-22-2-20-3-10-3h-2l-3 2-3-2v-3l-6-3-10-2h-19l-24 7-15 5-16 3-5 1-23 1h-5l-5-1-11-1-7-2-8-1-9-3-13-4-10-2-6-2-11-1-16 4-5 2h-3v2h-2v2l-4-2-1-2-1 2-4 2-4 1-20 4-21 1h-17l-15-3-10-1-15-3-1-3h-2l-1 4-4-1-1-4-13-4-12-1-8 1-10 3-5 2-22 5-21 4-18 1-19-1-11-1-14-2-11-3-7-3-10-3-7-3v-2l-5-1-7-4-17-5-9-1-15 2-10 3-14 7-16 7-22 6-19 3-9 1-15 1-2-1-17-1-16-3-13-5-9-3v-2l-4-1-9-5v-2l-5-5-2-4-2-1-6-11-5-11-3-10-1-12-4-14-1-3-2 4-2-8v-3h-2l1 16 1 7v15l1 7 1 3v3h-2l1 4-4-2-2-9-4-12-1-7-2-20-1-8v-16l2-5-5 1 1-6 2-1v-13l2-19 1-5 1-11 3-17 1-9 2-4h2l1-6 4-10h2l4-10v-2h-2l1-6 8-8 12-7 12-4 11-1h16l15 3 12 4 5 4v2h2l2 4 3-2 9 2 11 4 5 3 15 5 10 5 13 4 18 6 3 2 9 2 17 2h55l16 4 12 4 11 3 7 1h10l14-2 16-3 9-3 21-3 14-1h15l18-2 33-7 11-4 23-4 19-1h18l25 3 20 6 16 3h14l18-3 18-5 24-3 14-3h18l25-2 9-2 16-5 14-8 19-9 9-3 9-2z" fill="#5E55A8"/>
<path transform="translate(149,285)" d="m0 0h2l2 7 3-3 2 9 1 4-1 2 2 1 2 16 3 10 5 11 5 8v3l3 1 4 7 7 6 8 4v2l7 1 14 6 12 2 17 2h6l2 1 20-1 30-6 16-5 10-4 14-7 9-3 5-2 16-2 12 2 16 5 6 4 3 1v2l5 1 7 3 11 3 6 2 12 3 18 2h9l15 1 21-2 14-3 22-5 11-4 8-2h10l14 3 6 2v5h4l1-3h2l1 2 22 4 13 2 11 1h19l20-2 9-2h4l1-2 7-1 1-3 5 5v-2h2v-2l18-6 7-1 14 2 5 2 15 3 11 4 17 3 7 2h9l4 1h11l14-1 16-3 11-3h4l1-2 28-8h19l10 2 7 3v4l3 1 3-3 3 2 16 3 19 3 25 1h30l15-3 9-3 4 1 4-3 21-7 7-3 1-2 18-6 12-2 11 1 14 3 8 4 5 1 1 2 5 1v2l12 3 7 3 18 3 15 2h26l11-2 17-4 11-4-1 6 3 1v-6l2-3 5-3h2v-2l9-5 3-1v-2l24-12 8-2 16 1 9 4 7 4 9 2v-2h3v5h36l2-10 7-4 1-2h2l2-6 4-6 4-8 4-13 4-16 6-2 4-1v8l-2 5-1 7h2v9l-1 2 2 1h-3l2 5 2 2-3 9-5 11-8 11-9 10-3 4h-2v2l-17 11 4 2 3 3-3 2-12 3-2 4h-12l-7 2-1 2 20 1 9-1 13-3 16-8 9-7 2 1-7 7-10 8-20 7-7 3h-20l-6 1-6-2-25-2h-10l-13 2-19 5-3 2-10 2-5 2-16 4-21 4-12 1h-32l-3-1-12-1-5-1-12-2-4-1-21-4-17-2h-20l-16 2-10 3-26 5-24 4-43 2-7-1-31-1-16-2-3-1-18-1h-31l-20 2-7 1h-8l-7 1-25 1-27-1-19-1-3-1-27-2h-13l-17 2-29 2-38 1h-21l-20-2-21-3-32-2-12 1-3 1-39 3-57 2-11-1-16-4-12-2-15-5-18-2-11-1h-12l-15 1-15 3-14 3-3 2-11 1-17 3-21 2h-15l-23-2-10-2-15-2-18-7-12-4-7-4v-2l-4-2-9-7-3-3v-2l-3-1-5-6v-2l-5-2-2-3v-6l4 5 4 2v2l4 2 6 5 8 7 7 5 2-6-3-5-2-1v-2h-2v-2l-4-2 4-1 8 7h6l-5-5v-2l-5-2-5-5v-2h-2v-2h-2l-7-14-6-10-3-8v-3l2-1v-2h2l-2-6-1-9v-18l-1-5z" fill="#413565"/>
<path transform="translate(959,99)" d="m0 0h16l14 1 15 3 22 7 19 10 8 6 4 2v2l7 2 4 6-1 2h5l1-3 3-1 11 2 15 7 10 3 6 2 17 2 13 1 22-2 14-4 5-1 2-3 10-2 26-2 9-2 31 1 15 2 19 5 1-5 3 1v2h3v-2l28-3 19-8 8-4 17-9 11-4 8-2 11-1h16l20 4 18 8 10 7 6 4 8 8v2h2l9 14 10 16 9 20 3 11 1 16-2 26-2 12-2 19-1 10-3 12-2 12-6 17-3 13-8 14-12 19-3 5-3 1-1 3-8 5-11 7-14 7-16 3h-11l-13-2 1-3 7-2h9l3 1-1-3 2-2 15-4v-2l-9-2 3-2 11-7 4-3h2v-2l5-5 10-11 7-10 5-11 3-13v-4h2l12-48 1-12 2-9 1-16-1-10-1-16-1-5-2-7-2-8 6 2-5-12-4-5v-3h-2l-5-9-7-6-3-3-5-3-11-7-15-6-16-2-12-1-21 5-16 7-10 6-6 3-16 9-8 3-9 1-18-2-15-3-22-2h-25l-23 2-19 4-13 3-17 5-6 2-12 2h-16l-16-3-13-4-17-5-19-9-10-5-9-2-8-4-19-9-12-6-14-5-25-4-15 1-9 3-11 2-26 13-5 4-21 7-15 2-23 1h-12l-16 3-22 3-18 5-19 3h-14l-15-3-20-6-26-3h-23l-15 1-21 4-11 4-33 7-18 2h-21l-17 2-17 3-4 2-22 4-8 1h-10l-11-2-26-8-9-2h-55l-17-2-11-3-8-3-14-5-13-4-9-5-13-4-9-5-14-4-4 1-2 1-1-5h-2l-5-5-15-5-15-2h-15l-12 2-13 5-10 7-5 5-2 6 3-1v3l-5 10h-2l-2 9-6 12-1 8-3 17-1 11-3 25v13h-3l-1 6 5-1 1-2-1 4-1 3v21l1 7 2 20 6 18 3 13 7 14 7 12v3h2v2h2l3 4v2l5 2 2 1v2l4 2 2 4h-7l-8-7v2 2h2v2l4 2 2 5-2 6-7-4-7-6v-2l-5-2-7-6v-2l-5-2-5-7v-2h-2l-4-11-6-11-5-14-3-11-4-25-1-29v-35l1-17 1-4 1-13 4-26 7-20 4-2 1-3 3-3h2l1-4h-5v-3h5l3-5h2l2-4 5-7 10-8 8-6 14-6 14-4h19l16 2 15 4 14 7 11 6 7 3 8 4 10 4 8 3 18 5 25 7 5 2h19l7-1 6 2h12l21 2 14 1 27 7 9 2 23-1 12-2 33-6 29-2 15-2h12l12-2 3-3 5-2 32-3 15-2 11-1h11l24 4 7 2 5 4-1-4 4-1v2l4-1 2-1h8l24 3 21-2 27-2 10-1h11v2h3l1 2h2l1-2 3-2 5-3 15-3 20-3 13-3 10-4 24-11 9-3 7-3z" fill="#1B1B61"/>
<path transform="translate(988,160)" d="m0 0 3 1v67l24-10 15-3 20-1 20 3 13 4 9 5 10 7 9 9 8 13 4 11 2 12v15l-2 12-5 14-7 10-11 11-14 9-16 6-10 2-25 1-16-2-12-3-16-6v7l-1 1h-34l-1-16-1-78-2-2 3-1v-46l1-51z" fill="#FEFFFE"/>
<path transform="translate(186,161)" d="m0 0h34v67l16-7 17-5 17-2 19 1 14 3 12 5 11 6 10 9 8 9 5 10 4 12 1 10v19l-5 16-9 16-9 9-13 8-13 6-10 3-13 2h-12l-20-2-19-5-9-4h-2v8h-34z" fill="#FEFFFE"/>
<path transform="translate(1240,214)" d="m0 0h12l17 2 12 3 12 5 11 6 9 7 10 12 8 16 2 13 1 9v7l-5 18-6 12-7 7-6 7-17 11-18 6-12 2-19 1-11-1-9-1-15-4-17-9-13-11-7-9-6-10-4-13-1-9v-12l4-16 4-10 8-11 11-10 12-8 16-6 16-3z" fill="#FEFFFE"/>
<path transform="translate(400,217)" d="m0 0h33l1 68 2 16 4 9 4 6 9 6 9 3 5 1h20l16-5 12-7 5-5 1-91 1-1h32l1 1v136l-1 1h-32l-1-1-1-9-11 5-19 6-8 1h-33l-4-2-9-2-17-9-7-7-7-12-5-16-2-16v-29l1-46z" fill="#FEFFFE"/>
<path transform="translate(609,217)" d="m0 0h134l-4 6-7 9-8 10-7 9-9 12-7 9-11 14-30 39 5 1 73 1 1 5v20l-1 3h-143l2-5 8-10 7-9 9-12 10-13 4-5 7-9 10-13 11-14 8-11 5-7-16-1-52-1v-27z" fill="#FEFFFE"/>
<path transform="translate(782,217)" d="m0 0h133l-2 4-11 14-9 12-10 13-8 10-10 13-11 14-13 17-7 9-1 2 9 1 68 1 1 5v21l-1 2h-142l1-4 11-14 15-20 5-6 6-8 9-11 10-14 11-14 10-13 4-5-69-1-1-2v-21z" fill="#FEFFFE"/>
<path transform="translate(1403,173)" d="m0 0h33l1 1v43h32v26l-32 1v97l-1 14h-33l-1-1-1-50v-61h-32l-1-1v-24l1-1h32v-17l1-26z" fill="#FEFFFE"/>
<path transform="translate(160,310)" d="m0 0h2l5 16 3 7v3l2 1 3 4v3h2l5 5 3 6 5 3 6 7 18 6 8 2 14 2 14-1 3 3v2l3-2h8l18-2 16-3 15-4 20-9 11-6 16-6 6-1h17l13 5 30 15 13 3 7 3 10 2 8 1h19l3 3 3 1v-2l20-2 3-1 24-3 9-3 10-3 14-7 14-1 11 5 4 1 4 3 5 1 14 5 14 2 13 2 6 1h18l24-3 14-4 8-2 10-5 3-2 14-3h17l5 3v2l6 2v2l8 1 15 4 19 4 14 1 3-1 3 2 6-1 4 1 7-1 18-4 13-3 12-4h2l2-4 4-1 1-3 6-1 2-1v2h16l11 2 5 2 14 7 4 1 31 5 7 1h42l18-2 6-1 1 4h2v3l-7 3-10 1-6 1h-36l-22-2-20-3-10-3h-2l-3 2-3-2v-3l-6-3-10-2h-19l-24 7-15 5-16 3-5 1-23 1h-5l-5-1-11-1-7-2-8-1-9-3-13-4-10-2-6-2-11-1-16 4-5 2h-3v2h-2v2l-4-2-1-2-1 2-4 2-4 1-20 4-21 1h-17l-15-3-10-1-15-3-1-3h-2l-1 4-4-1-1-4-13-4-12-1-8 1-10 3-5 2-22 5-21 4-18 1-19-1-11-1-14-2-11-3-7-3-10-3-7-3v-2l-5-1-7-4-17-5-9-1-15 2-10 3-14 7-16 7-22 6-19 3-9 1-15 1-2-1-17-1-16-3-13-5-9-3v-2l-4-1-9-5v-2l-5-5-2-4-2-1-6-11-5-11-3-10z" fill="#60508F"/>
<path transform="translate(267,245)" d="m0 0h9l11 2 12 5 11 10 7 14v18l-3 9-6 10-13 9-15 5-16 1-18-3-11-4-13-8-2-3v-47l10-7 14-7 12-3z" fill="#5F56A9"/>
<path transform="translate(1031,245)" d="m0 0h16l14 3 13 7 7 7 6 12 1 4v16l-4 11-9 11-12 7-10 3-14 2-17-2-9-2-12-5-5-4-5-3v-47l5-6 14-8 16-5z" fill="#5F56A9"/>
<path transform="translate(1236,245)" d="m0 0h19l9 1 14 6 10 9 7 11 2 8v12l-3 10-6 10-10 8-12 5-7 2-13 1-13-2-13-4-9-7-8-9-4-9-1-4v-12l3-10 6-10 10-9 12-5z" fill="#5F56A8"/>
<path transform="translate(1489,187)" d="m0 0 8 3 5 13 2 5 2 15v29l-1 11 4-7 1-4 2-2 1-7h3v2h3l-1 13-2 19-1 10-3 12-2 12-6 17-3 13-8 14-12 19-3 5-3 1-1 3-8 5-11 7-14 7-16 3h-11l-13-2 1-3 7-2h9l3 1-1-3 2-2 15-4v-2l-9-2 3-2 11-7 4-3h2v-2l5-5 10-11 7-10 5-11 3-13v-4h2l12-48 1-12 2-9 1-16-1-10-1-16-1-5-2-7z" fill="#2F295E"/>
<path transform="translate(119,245)" d="m0 0 1 4 3 2 2 9-1 3 2 6 2-6h2v-2h10l1-2-1 4-1 3v21l1 7 2 20 6 18 3 13 7 14 7 12v3h2v2h2l3 4v2l5 2 2 1v2l4 2 2 4h-7l-8-7v2 2h2v2l4 2 2 5-2 6-7-4-7-6v-2l-5-2-7-6v-2l-5-2-5-7v-2h-2l-4-11-6-11-5-14-3-11-4-25-1-29v-20l1-4z" fill="#302A5E"/>
<path transform="translate(1358,329)" d="m0 0 18 3 10 5 4 4h7l3-2 1 2 2 15h-2v-5h-3v2l-9-1-10-6-6-2-16-1-8 2-16 8-5 3h-3v2l-9 6h-3v2l-7 4-1 4-1 5-4-2 1-5-10 4-17 4-12 2h-28l-13-2-17-3-10-4-6-1-3-2v-2h-5l-1-3h-5l-8-4-14-3-11-1-15 3-12 4h-3l-1 3-6 1-1 2-14 5-8 3-3 2-4-1-2-1v-5l11-4 14-7 9-3 4-1v-2l7-3 14-5 14-2 11 2 20 8 14 7 18 6 17 3 21 2 20-2 13-2 12-3h6v-2l12-6 13-9 8-6 12-8 3-3z" fill="#60508F"/>
<path transform="translate(1008,252)" d="m0 0 6 2v3l2 1-3 6-6 9-2 6-1 14 1 7h2l5 10 4 7v6l-3 1-12-5-5-4-5-3v-47l5-6z" fill="#9A8FD0"/>
<path transform="translate(1489,187)" d="m0 0 8 3 5 13 2 5 2 15v29l-1 12h-2l1 3-1 13h-1l-1 5h-2l-1 3-5 5-5 3-2 2v-6l2-5 4-17 1-12 2-9 1-16-1-10-1-16-1-5-2-7z" fill="#2F2B70"/>
<path transform="translate(158,146)" d="m0 0 1 3 3-1v3l-5 10h-2l-2 9-6 12-1 8-3 17-1 11-3 25v13h-3l-1 5-2-4-5-6 1-17 4-27 1-5 3-16 7-20 4-6h2l2-7 1-2h2l2-4z" fill="#2F2B70"/>
<path transform="translate(244,249)" d="m0 0 6 1-4 4h-2v2l3 1-12 18-3 10-1 9 2 9 2 3v7l-1 2-8 1-5-4-1-2v-47l10-7z" fill="#998ECF"/>
<path transform="translate(855,294)" d="m0 0 7 1 2 4-1 11v8l-1 2h-2v2h-2v3l51 1v1h-67l-10-1 5-9 7-8 10-13z" fill="#998ECF"/>
<path transform="translate(683,297)" d="m0 0h5l1 6-1 17-1 2h-2l-1 3 52 1v1h-71l-6-1 4-7 7-8 7-9 4-4z" fill="#998ECF"/>
<path transform="translate(140,259)" d="m0 0 1 3-2 4v21l1 7 2 18-5-2-1-3h-2v-6h-2v-2l-3-1-1-18v-9l-2-1 2-7h2v-2h10z" fill="#2F2B6F"/>
<path transform="translate(610,245)" d="m0 0h50l17 1-4 7-7 9-4 5h-2l-4-9-1-3 2-5v-3l-47-1z" fill="#978CCE"/>
<path transform="translate(1466,293)" d="m0 0 1 4-5 17-4 9-5 10-4 7h-2l-2 4-3 2h-3l-1 2v-9l6-7 4-2 6-10 6-13v-2h2l1-5z" fill="#5F508F"/>
<path transform="translate(782,245)" d="m0 0h69l-4 6-8 11h-6v-5l-4-1 1-9-48-1z" fill="#9F94D2"/>
<path transform="translate(1199,276)" d="m0 0 5 3 3 6v3l-2 8-6 1-1-4v-12z" fill="#978CCE"/>
<path transform="translate(991,204)" d="m0 0h1v13h5l3 2v2h2l1 3-9 4h-3z" fill="#9A8FD0"/>
<path transform="translate(1086,274)" d="m0 0 2 4v16l-2 4-3 2-1-8 1-7z" fill="#9A8FD0"/>
<path transform="translate(126,271)" d="m0 0h2l1 14-5-5-1-4v-1l2-1z" fill="#1B1B61"/>
</svg>
